# xmcd CD database file
#
# Track frame offsets:
#	150
#	33352
#	48537
#	74654
#	88979
#	122470
#	143661
#	176384
#	200148
#	234577
#	260497
#	287676
#	300696
#
# Disc length: 4311 seconds
#
# Revision: 0
# Processed by: cddbd v1.5.2PL0 Copyright (c) Steve Scherf et al.
# Submitted via: CDex 1.51
#
DISCID=c110d50d
DTITLE=Miles Davis - Ultimate Miles CD2-5
DYEAR=2008
DGENRE=Jazz
TTITLE0=A Night In Tunesia
TTITLE1=Enigma
TTITLE2=Green Haze
TTITLE3=Donna
TTITLE4=Ahmad's Blues
TTITLE5=How Am I To Know
TTITLE6=Four
TTITLE7=A Gal In Calico
TTITLE8=Dig
TTITLE9=But Not For Me
TTITLE10=Floppy
TTITLE11=Down
TTITLE12=Easy Living
EXTD=YEAR: 2008
EXTT0=
EXTT1=
EXTT2=
EXTT3=
EXTT4=
EXTT5=
EXTT6=
EXTT7=
EXTT8=
EXTT9=
EXTT10=
EXTT11=
EXTT12=
PLAYORDER=
